<svg width="15" height="14" viewBox="0 0 15 14" fill="none" xmlns="http://www.w3.org/2000/svg">
<path d="M7.64046 4.65579C6.3551 4.65579 5.30617 5.70475 5.30617 6.99011C5.30617 8.27548 6.3551 9.32444 7.64046 9.32444C8.9258 9.32444 9.97473 8.27548 9.97473 6.99011C9.97473 5.70475 8.9258 4.65579 7.64046 4.65579ZM14.6415 6.99011C14.6415 6.02346 14.6503 5.06557 14.596 4.10066C14.5418 2.97991 14.286 1.98523 13.4666 1.16568C12.6452 0.344372 11.6523 0.0904507 10.5316 0.0361639C9.56497 -0.0181228 8.60709 -0.00936682 7.64221 -0.00936682C6.67556 -0.00936682 5.71768 -0.0181228 4.7528 0.0361639C3.63207 0.0904507 2.63742 0.346123 1.81788 1.16568C0.996588 1.98698 0.74267 2.97991 0.688385 4.10066C0.634099 5.06732 0.642855 6.02521 0.642855 6.99011C0.642855 7.95502 0.634099 8.91466 0.688385 9.87956C0.74267 11.0003 0.998339 11.995 1.81788 12.8146C2.63917 13.6358 3.63207 13.8898 4.7528 13.944C5.71945 13.9984 6.67731 13.9896 7.64221 13.9896C8.60884 13.9896 9.56672 13.9984 10.5316 13.944C11.6523 13.8898 12.647 13.634 13.4666 12.8146C14.2878 11.9932 14.5418 11.0003 14.596 9.87956C14.652 8.91466 14.6415 7.95677 14.6415 6.99011ZM7.64046 10.5818C5.6529 10.5818 4.04884 8.9777 4.04884 6.99011C4.04884 5.00252 5.6529 3.39844 7.64046 3.39844C9.62801 3.39844 11.2321 5.00252 11.2321 6.99011C11.2321 8.9777 9.62801 10.5818 7.64046 10.5818ZM11.3792 4.09015C10.9151 4.09015 10.5404 3.7154 10.5404 3.25133C10.5404 2.78728 10.9151 2.41252 11.3792 2.41252C11.8432 2.41252 12.218 2.78728 12.218 3.25133C12.2181 3.36153 12.1965 3.47066 12.1544 3.5725C12.1123 3.67433 12.0505 3.76686 11.9726 3.84478C11.8947 3.9227 11.8022 3.98448 11.7003 4.02658C11.5985 4.06869 11.4893 4.09029 11.3792 4.09015Z" fill="white" fill-opacity="0.9"/>
</svg>
